# xmcd
#
# Track frame offsets: 
#        150
#        27852
#        52007
#        74767
#        120162
#        138862
#        171812
#        192667
#
# Disc length: 2983 seconds
#
# Revision: 0
# Processed by: cddbd v1.5.2PL0 Copyright (c) Steve Scherf et al.
# Submitted via: ExactAudioCopyFreeDBPlugin 1.0
#
DISCID=710ba508
DTITLE=George Conner - Brother's Tone
DYEAR=2012
DGENRE=Blues
TTITLE0=Woman I'm Leaving You
TTITLE1=Treat Me Like I Treat You
TTITLE2=I'm Gone But I Don't Know Where I'm Going
TTITLE3=Brother's Tone
TTITLE4=I'm Ready
TTITLE5=All Night Long
TTITLE6=I'm Going Home
TTITLE7=Woman Hear My Plea
EXTD=
EXTT0=
EXTT1=
EXTT2=
EXTT3=
EXTT4=
EXTT5=
EXTT6=
EXTT7=
PLAYORDER=
